HIERARCHY
ROOT Pelvis
{
	OFFSET 0.000000 0.000000 0.000000
	CHANNELS 6 Xposition Yposition Zposition Xrotation Yrotation Zrotation
	JOINT LeftUpLeg_virtual
	{
		OFFSET 0.000000 0.000000 0.000000
		CHANNELS 3 Xrotation Yrotation Zrotation
		JOINT LeftUpLeg
		{
			OFFSET 18.735201 -5.666702 -4.541200
			CHANNELS 3 Xrotation Yrotation Zrotation
			JOINT LeftLeg
			{
				OFFSET -0.021200 -31.938179 0.493100
				CHANNELS 3 Xrotation Yrotation Zrotation
				JOINT LeftFoot
				{
					OFFSET 0.021200 -31.938179 -4.336299
					CHANNELS 3 Xrotation Yrotation Zrotation
					JOINT LeftToeBase
					{
						OFFSET 0.943001 -26.722000 15.023500
						CHANNELS 3 Xrotation Yrotation Zrotation
						End Site
						{
							OFFSET 0 0 0
						}
					}
				}
			}
		}
	}
	JOINT RightUpLeg_virtual
	{
		OFFSET 0.000000 0.000000 0.000000
		CHANNELS 3 Xrotation Yrotation Zrotation
		JOINT RightUpLeg
		{
			OFFSET -18.735201 -5.666702 -4.541200
			CHANNELS 3 Xrotation Yrotation Zrotation
			JOINT RightLeg
			{
				OFFSET 0.018946 -31.938133 0.493100
				CHANNELS 3 Xrotation Yrotation Zrotation
				JOINT RightFoot
				{
					OFFSET -0.018946 -31.938126 -4.336299
					CHANNELS 3 Xrotation Yrotation Zrotation
					JOINT RightToeBase
					{
						OFFSET -0.943001 -26.722004 15.023500
						CHANNELS 3 Xrotation Yrotation Zrotation
						End Site
						{
							OFFSET 0 0 0
						}
					}
				}
			}
		}
	}
	JOINT Hips_virtual
	{
		OFFSET 0.000000 0.000000 0.000000
		CHANNELS 3 Xrotation Yrotation Zrotation
		JOINT Hips
		{
			OFFSET -0.000000 -0.000000 -0.000000
			CHANNELS 3 Xrotation Yrotation Zrotation
			JOINT Spine
			{
				OFFSET 0.000000 10.199997 -0.299500
				CHANNELS 3 Xrotation Yrotation Zrotation
				JOINT Spine1
				{
					OFFSET 0.000000 11.900002 -1.516600
					CHANNELS 3 Xrotation Yrotation Zrotation
					JOINT Spine2
					{
						OFFSET 0.000000 13.600006 -2.842500
						CHANNELS 3 Xrotation Yrotation Zrotation
						JOINT Neck_virtual
						{
							OFFSET 0.000000 0.000000 0.000000
							CHANNELS 3 Xrotation Yrotation Zrotation
							JOINT Neck
							{
								OFFSET 0.000000 9.624100 -2.890100
								CHANNELS 3 Xrotation Yrotation Zrotation
								JOINT Head
								{
									OFFSET 0.000000 14.068802 -1.351900
									CHANNELS 3 Xrotation Yrotation Zrotation
									End Site
									{
										OFFSET 0 0 0
									}
								}
							}
						}
						JOINT LeftShoulder_virtual
						{
							OFFSET 0.000000 0.000000 0.000000
							CHANNELS 3 Xrotation Yrotation Zrotation
							JOINT LeftShoulder
							{
								OFFSET 15.263000 10.923401 -0.547700
								CHANNELS 3 Xrotation Yrotation Zrotation
								JOINT LeftArm
								{
									OFFSET 25.438599 -2.830597 -13.032500
									CHANNELS 3 Xrotation Yrotation Zrotation
									JOINT LeftForeArm
									{
										OFFSET 29.960503 0.000000 0.000000
										CHANNELS 3 Xrotation Yrotation Zrotation
										JOINT LeftHand
										{
											OFFSET 27.849251 0.000000 0.000000
											CHANNELS 3 Xrotation Yrotation Zrotation
											End Site
											{
												OFFSET 0 0 0
											}
										}
									}
								}
							}
						}
						JOINT RightShoulder_virtual
						{
							OFFSET 0.000000 0.000000 0.000000
							CHANNELS 3 Xrotation Yrotation Zrotation
							JOINT RightShoulder
							{
								OFFSET -15.263000 10.923401 -0.547700
								CHANNELS 3 Xrotation Yrotation Zrotation
								JOINT RightArm
								{
									OFFSET -25.438599 -2.830597 -13.032500
									CHANNELS 3 Xrotation Yrotation Zrotation
									JOINT RightForeArm
									{
										OFFSET -29.960503 0.000000 0.000000
										CHANNELS 3 Xrotation Yrotation Zrotation
										JOINT RightHand
										{
											OFFSET -27.849251 0.000000 0.000000
											CHANNELS 3 Xrotation Yrotation Zrotation
											End Site
											{
												OFFSET 0 0 0
											}
										}
									}
								}
							}
						}
					}
				}
			}
		}
	}
}
MOTION
Frames: 13
Frame Time: 0.03333333
1.657550 83.639732 -0.870760 0.000000 0.000000 0.000000 4.170820 -16.001709 -2.489040 -37.630388 7.560663 14.111397 54.170200 6.338770 -2.034686 -4.025298 6.361467 -3.885184 0.000000 0.000000 0.000000 -2.729900 -2.294888 6.965874 -35.507227 -6.065443 -8.398479 50.118063 -7.614903 -4.151064 -11.309875 -7.437571 0.345240 0.000000 0.000000 0.000000 10.926932 9.019148 0.159392 12.980447 -3.550597 2.967194 10.920751 1.659033 -0.517451 6.706931 0.488446 -0.893945 0.000000 0.000000 0.000000 4.336586 1.403336 0.607510 -0.199619 -1.099300 1.749088 0.000000 0.000000 0.000000 8.668126 -0.150387 0.782646 3.776579 -19.306494 5.548485 -58.524346 -31.260956 -70.158802 -162.992397 -71.765508 -159.674605 0.000000 0.000000 0.000000 8.816342 1.586712 -0.015008 2.983439 7.062017 3.821374 -53.612071 55.366053 46.764533 -167.939530 79.740020 163.079045 0.000000 0.000000 0.000000 
1.662089 83.639664 -0.882772 0.000000 0.000000 0.000000 4.168079 -15.994785 -2.484210 -37.633639 7.559503 14.117065 54.173823 6.340124 -2.034385 -4.026820 6.362041 -3.883755 0.000000 0.000000 0.000000 -2.735751 -2.294083 6.971147 -35.514163 -6.066125 -8.392576 50.118876 -7.615660 -4.155318 -11.311436 -7.435619 0.339283 0.000000 0.000000 0.000000 10.918388 8.987072 0.163561 12.968286 -3.590278 2.966469 10.924889 1.642597 -0.512251 6.707123 0.478825 -0.889672 0.000000 0.000000 0.000000 4.336496 1.396061 0.604622 -0.197952 -1.100329 1.745430 0.000000 0.000000 0.000000 8.671942 -0.158571 0.785280 3.780876 -19.317394 5.542840 -58.536900 -31.254614 -70.176314 -162.959107 -71.768138 -159.647735 0.000000 0.000000 0.000000 8.815642 1.578779 -0.014892 2.985651 7.060151 3.804141 -53.598998 55.352075 46.734545 -167.927974 79.762205 163.057953 0.000000 0.000000 0.000000 
1.664985 83.644524 -0.899384 0.000000 0.000000 0.000000 4.168672 -15.990781 -2.473488 -37.631651 7.555926 14.127052 54.176548 6.342617 -2.033356 -4.029284 6.363238 -3.880498 0.000000 0.000000 0.000000 -2.740310 -2.292721 6.977001 -35.519617 -6.066985 -8.386249 50.114683 -7.615089 -4.161317 -11.317042 -7.431921 0.332409 0.000000 0.000000 0.000000 10.909089 8.949854 0.169462 12.958098 -3.632539 2.975510 10.933033 1.628709 -0.505108 6.711154 0.470579 -0.884092 0.000000 0.000000 0.000000 4.337642 1.390286 0.603680 -0.195923 -1.100903 1.742521 0.000000 0.000000 0.000000 8.679534 -0.165392 0.788763 3.787714 -19.322554 5.539829 -58.537870 -31.246777 -70.180508 -162.917142 -71.782071 -159.612205 0.000000 0.000000 0.000000 8.817499 1.571997 -0.013439 2.988758 7.061001 3.789671 -53.596122 55.338975 46.715195 -167.917018 79.779478 163.037121 0.000000 0.000000 0.000000 
1.669365 83.648277 -0.916924 0.000000 0.000000 0.000000 4.166885 -15.982479 -2.459777 -37.634032 7.551636 14.141367 54.168635 6.345787 -2.030248 -4.042100 6.363922 -3.874353 0.000000 0.000000 0.000000 -2.745748 -2.281492 6.983928 -35.525706 -6.065453 -8.378568 50.102907 -7.615101 -4.167439 -11.331173 -7.428784 0.326224 0.000000 0.000000 0.000000 10.899200 8.919191 0.172672 12.948697 -3.673883 2.970014 10.944436 1.617452 -0.500727 6.715553 0.463716 -0.879348 0.000000 0.000000 0.000000 4.338690 1.386759 0.603291 -0.193231 -1.100854 1.740359 0.000000 0.000000 0.000000 8.689817 -0.171488 0.790992 3.794893 -19.330344 5.532275 -58.555314 -31.231293 -70.197283 -162.880027 -71.783089 -159.581114 0.000000 0.000000 0.000000 8.823051 1.566638 -0.012888 2.996741 7.062499 3.774899 -53.582609 55.325304 46.682885 -167.902374 79.805843 163.011030 0.000000 0.000000 0.000000 
1.675331 83.657951 -0.942705 0.000000 0.000000 0.000000 4.170830 -15.973408 -2.440751 -37.628120 7.546526 14.159286 54.160890 6.350410 -2.026322 -4.054443 6.365485 -3.865911 0.000000 0.000000 0.000000 -2.745535 -2.288551 6.981520 -35.525692 -6.066451 -8.381084 50.094185 -7.610677 -4.170126 -11.344939 -7.423685 0.328548 0.000000 0.000000 0.000000 10.890400 8.886033 0.176181 12.948616 -3.719172 2.973009 10.964138 1.608251 -0.493468 6.724556 0.457953 -0.873629 0.000000 0.000000 0.000000 4.342383 1.383893 0.606233 -0.189586 -1.100183 1.739621 0.000000 0.000000 0.000000 8.702178 -0.177414 0.794143 3.804411 -19.337343 5.526848 -58.568107 -31.217967 -70.207166 -162.838704 -71.788847 -159.544381 0.000000 0.000000 0.000000 8.832432 1.561120 -0.009119 3.005495 7.064427 3.770681 -53.573757 55.300972 46.635613 -167.884301 79.838737 162.974160 0.000000 0.000000 0.000000 
1.680184 83.660988 -0.967878 0.000000 0.000000 0.000000 4.176896 -15.961756 -2.419928 -37.621095 7.542025 14.179573 54.148442 6.357198 -2.024611 -4.071469 6.370002 -3.859008 0.000000 0.000000 0.000000 -2.746614 -2.285879 6.976580 -35.526706 -6.063900 -8.385743 50.086884 -7.598935 -4.173130 -11.358325 -7.412454 0.336114 0.000000 0.000000 0.000000 10.878365 8.865737 0.176738 12.933851 -3.738564 2.971425 10.982012 1.601979 -0.486865 6.731171 0.454601 -0.867979 0.000000 0.000000 0.000000 4.342630 1.382170 0.609306 -0.186262 -1.099716 1.739707 0.000000 0.000000 0.000000 8.713764 -0.182410 0.796002 3.810728 -19.345387 5.517236 -58.583946 -31.191661 -70.215724 -162.784663 -71.803935 -159.493783 0.000000 0.000000 0.000000 8.840235 1.557040 -0.005814 3.011767 7.069466 3.770244 -53.608355 55.274788 46.614549 -167.842432 79.867635 162.909328 0.000000 0.000000 0.000000 
1.690819 83.672470 -0.999287 0.000000 0.000000 0.000000 4.195049 -15.952556 -2.392541 -37.598450 7.537130 14.203794 54.135984 6.363698 -2.021234 -4.088562 6.373300 -3.850068 0.000000 0.000000 0.000000 -2.734176 -2.297240 6.977149 -35.511953 -6.068541 -8.386091 50.073667 -7.590044 -4.176725 -11.377733 -7.403438 0.341527 0.000000 0.000000 0.000000 10.868716 8.842750 0.178983 12.921946 -3.747283 2.972392 11.008464 1.591719 -0.476644 6.742517 0.449066 -0.859837 0.000000 0.000000 0.000000 4.348588 1.378906 0.614623 -0.181105 -1.099564 1.741172 0.000000 0.000000 0.000000 8.727831 -0.189055 0.799456 3.819197 -19.356840 5.511528 -58.601397 -31.173352 -70.242868 -162.732372 -71.809371 -159.449441 0.000000 0.000000 0.000000 8.856029 1.550633 -0.000704 3.022329 7.067172 3.772122 -53.600015 55.227274 46.548217 -167.775455 79.915269 162.818732 0.000000 0.000000 0.000000 
1.703600 83.677155 -1.029209 0.000000 0.000000 0.000000 4.218398 -15.955689 -2.362111 -37.572089 7.529867 14.230281 54.116258 6.372999 -2.019364 -4.109146 6.380122 -3.841396 0.000000 0.000000 0.000000 -2.719494 -2.300042 6.974897 -35.494543 -6.070319 -8.389710 50.071570 -7.571110 -4.187478 -11.387863 -7.382144 0.343917 0.000000 0.000000 0.000000 10.856195 8.831195 0.178354 12.901133 -3.780701 2.995672 11.034936 1.591113 -0.463478 6.755444 0.449981 -0.848829 0.000000 0.000000 0.000000 4.354507 1.378323 0.622085 -0.175386 -1.099248 1.743946 0.000000 0.000000 0.000000 8.747265 -0.191144 0.805665 3.834477 -19.364191 5.523868 -58.598454 -31.155290 -70.261849 -162.692770 -71.817718 -159.422967 0.000000 0.000000 0.000000 8.870512 1.549646 0.005729 3.031250 7.071095 3.783150 -53.641492 55.187228 46.522293 -167.687496 79.952979 162.704204 0.000000 0.000000 0.000000 
1.707338 83.677574 -1.065329 0.000000 0.000000 0.000000 4.233020 -15.969298 -2.327072 -37.562311 7.516806 14.264245 54.096543 6.382295 -2.018182 -4.130722 6.387116 -3.833579 0.000000 0.000000 0.000000 -2.717612 -2.336521 6.983173 -35.495834 -6.082645 -8.383851 50.072079 -7.550019 -4.194977 -11.396174 -7.360822 0.352388 0.000000 0.000000 0.000000 10.837640 8.841669 0.175751 12.835724 -3.740642 2.930895 11.060984 1.598211 -0.449155 6.765663 0.452101 -0.837389 0.000000 0.000000 0.000000 4.359093 1.382514 0.628192 -0.170416 -1.096994 1.745706 0.000000 0.000000 0.000000 8.761858 -0.190304 0.808079 3.840556 -19.367176 5.509939 -58.617353 -31.120702 -70.331237 -162.623225 -71.802063 -159.372096 0.000000 0.000000 0.000000 8.886899 1.549768 0.013881 3.038080 7.076505 3.799277 -53.682545 55.155909 46.505481 -167.659752 79.977595 162.653292 0.000000 0.000000 0.000000 
1.723749 83.675468 -1.103382 0.000000 0.000000 0.000000 4.269821 -16.023209 -2.286246 -37.536326 7.499140 14.301668 54.105699 6.368359 -2.019088 -4.140076 6.373084 -3.844270 0.000000 0.000000 0.000000 -2.694975 -2.366818 7.000133 -35.477457 -6.098594 -8.374486 50.116674 -7.540961 -4.199957 -11.384862 -7.347415 0.356469 0.000000 0.000000 0.000000 10.818189 8.823259 0.173895 12.780947 -3.809760 2.942549 11.090520 1.608197 -0.426725 6.773419 0.456892 -0.820429 0.000000 0.000000 0.000000 4.359530 1.384392 0.638394 -0.169020 -1.096901 1.749782 0.000000 0.000000 0.000000 8.764343 -0.191829 0.813826 3.834405 -19.387608 5.507497 -58.713884 -31.123178 -70.461966 -162.621531 -71.711700 -159.384281 0.000000 0.000000 0.000000 8.904379 1.551552 0.023489 3.042213 7.094044 3.823057 -53.708632 55.152866 46.413215 -167.661446 80.039681 162.610220 0.000000 0.000000 0.000000 
1.731841 83.650322 -1.063131 0.000000 0.000000 0.000000 4.333600 -16.066031 -2.207175 -37.457113 7.472253 14.363068 54.158537 6.353031 -2.005253 -4.096357 6.351621 -3.833784 0.000000 0.000000 0.000000 -2.621430 -2.413420 7.023580 -35.385434 -6.127632 -8.353972 50.168918 -7.528232 -4.190804 -11.355320 -7.339305 0.378901 0.000000 0.000000 0.000000 10.793086 8.744455 0.179220 12.705634 -4.001380 2.942170 11.184835 1.610002 -0.423219 6.822079 0.456510 -0.814606 0.000000 0.000000 0.000000 4.401523 1.390497 0.642369 -0.148544 -1.093944 1.751557 0.000000 0.000000 0.000000 8.776136 -0.196810 0.814697 3.832763 -19.390087 5.482603 -58.640077 -31.181965 -70.588502 -162.672594 -71.666675 -159.498933 0.000000 0.000000 0.000000 8.949555 1.558939 0.015895 3.079546 7.147079 3.773925 -53.556258 55.304103 46.223899 -168.069454 80.047836 162.997342 0.000000 0.000000 0.000000 
1.632540 83.652367 -0.995371 0.000000 0.000000 0.000000 4.441731 -16.132504 -2.156804 -37.330372 7.464316 14.391827 54.280934 6.321399 -2.020913 -3.989562 6.330237 -3.871774 0.000000 0.000000 0.000000 -2.607355 -2.554557 7.029479 -35.376039 -6.168393 -8.354125 50.240628 -7.532917 -4.175426 -11.309182 -7.347745 0.395310 0.000000 0.000000 0.000000 10.764616 8.647867 0.187392 12.594158 -4.306171 2.877907 11.282819 1.623604 -0.431880 6.875217 0.465550 -0.813303 0.000000 0.000000 0.000000 4.433841 1.406223 0.627038 -0.135051 -1.086494 1.741822 0.000000 0.000000 0.000000 8.777861 -0.191683 0.798917 3.813839 -19.377059 5.383602 -58.552821 -31.272649 -70.759920 -162.752780 -71.579693 -159.653514 0.000000 0.000000 0.000000 8.976895 1.572242 0.016670 3.089579 7.180285 3.769948 -53.386999 55.380106 46.023584 -168.245973 80.155077 163.157988 0.000000 0.000000 0.000000 
1.590569 83.668221 -0.922497 0.000000 0.000000 0.000000 4.461839 -16.169691 -2.086669 -37.294619 7.430687 14.447315 54.268100 6.283946 -1.996715 -3.995738 6.285269 -3.866502 0.000000 0.000000 0.000000 -2.600250 -2.660438 7.068226 -35.376978 -6.209280 -8.322045 50.295143 -7.503490 -4.131243 -11.266248 -7.345816 0.475174 0.000000 0.000000 0.000000 10.734943 8.498051 0.210920 12.546263 -4.599790 2.997129 11.351501 1.639093 -0.398937 6.892272 0.481431 -0.788545 0.000000 0.000000 0.000000 4.438912 1.415672 0.637026 -0.130426 -1.084301 1.745078 0.000000 0.000000 0.000000 8.771910 -0.183390 0.803197 3.796165 -19.325102 5.334325 -58.493767 -31.351531 -70.894461 -162.849578 -71.489486 -159.804925 0.000000 0.000000 0.000000 9.016683 1.604022 0.028549 3.095808 7.335966 3.791166 -53.373837 55.506372 45.944422 -168.520342 80.195020 163.412180 0.000000 0.000000 0.000000 
